<svg xmlns="http://www.w3.org/2000/svg" height="590pt" version="1.1" viewBox="-122 0 590 590.459" width="590pt">
<g id="surface1">
<path d="M 0.132812 166.664062 C 0.132812 217.78125 10.519531 268.359375 30.652344 315.34375 C 50.78125 362.332031 61.167969 412.910156 61.167969 464.023438 L 61.167969 528.964844 L 284.960938 528.964844 L 284.960938 464.023438 C 284.960938 412.910156 295.347656 362.332031 315.480469 315.34375 C 335.609375 268.359375 345.996094 217.78125 345.996094 166.664062 L 345.996094 162.757812 L 0.132812 162.757812 Z M 0.132812 166.664062 " style=" stroke:none;fill-rule:nonzero;fill:rgb(98.039216%,70.196078%,28.627451%);fill-opacity:1;" />
<path d="M 0.132812 81.378906 L 345.996094 81.378906 L 345.996094 162.757812 L 0.132812 162.757812 Z M 0.132812 81.378906 " style=" stroke:none;fill-rule:nonzero;fill:rgb(100%,83.921569%,58.823529%);fill-opacity:1;" />
<path d="M 61.167969 0 L 284.960938 0 C 318.671875 0 345.996094 27.324219 345.996094 61.035156 L 345.996094 81.378906 L 0.132812 81.378906 L 0.132812 61.035156 C 0.132812 27.324219 27.457031 0 61.167969 0 Z M 61.167969 0 " style=" stroke:none;fill-rule:nonzero;fill:rgb(94.117647%,92.54902%,91.372549%);fill-opacity:1;" />
<path d="M 284.960938 0 L 234.097656 0 C 267.8125 0 295.132812 27.324219 295.132812 61.035156 L 295.132812 81.378906 L 345.996094 81.378906 L 345.996094 61.035156 C 345.996094 27.324219 318.671875 0 284.960938 0 Z M 284.960938 0 " style=" stroke:none;fill-rule:nonzero;fill:rgb(90.196078%,85.882353%,82.745098%);fill-opacity:1;" />
<path d="M 203.582031 81.378906 L 264.617188 81.378906 L 264.617188 213.621094 C 264.617188 230.476562 250.957031 244.136719 234.097656 244.136719 C 217.242188 244.136719 203.582031 230.476562 203.582031 213.621094 Z M 203.582031 81.378906 " style=" stroke:none;fill-rule:nonzero;fill:rgb(94.117647%,92.54902%,91.372549%);fill-opacity:1;" />
<path d="M 61.167969 569.65625 C 61.167969 580.894531 70.273438 590 81.515625 590 L 264.617188 590 C 275.859375 590 284.964844 580.894531 284.964844 569.65625 L 284.964844 528.964844 L 61.167969 528.964844 Z M 61.167969 569.65625 " style=" stroke:none;fill-rule:nonzero;fill:rgb(94.117647%,92.54902%,91.372549%);fill-opacity:1;" />
<path d="M 234.097656 528.964844 L 234.097656 569.65625 C 234.097656 580.894531 224.996094 590 213.753906 590 L 264.617188 590 C 275.855469 590 284.960938 580.894531 284.960938 569.65625 L 284.960938 528.964844 Z M 234.097656 528.964844 " style=" stroke:none;fill-rule:nonzero;fill:rgb(90.196078%,85.882353%,82.745098%);fill-opacity:1;" />
<path d="M 122.203125 233.964844 C 122.203125 245.203125 113.09375 254.3125 101.859375 254.3125 C 90.621094 254.3125 81.511719 245.203125 81.511719 233.964844 C 81.511719 222.730469 90.621094 213.621094 101.859375 213.621094 C 113.09375 213.621094 122.203125 222.730469 122.203125 233.964844 Z M 122.203125 233.964844 " style=" stroke:none;fill-rule:nonzero;fill:rgb(100%,83.921569%,58.823529%);fill-opacity:1;" />
<path d="M 162.894531 325.515625 C 162.894531 331.132812 158.339844 335.6875 152.722656 335.6875 C 147.101562 335.6875 142.546875 331.132812 142.546875 325.515625 C 142.546875 319.898438 147.101562 315.34375 152.722656 315.34375 C 158.339844 315.34375 162.894531 319.898438 162.894531 325.515625 Z M 162.894531 325.515625 " style=" stroke:none;fill-rule:nonzero;fill:rgb(100%,83.921569%,58.823529%);fill-opacity:1;" />
<path d="M 295.132812 166.664062 C 295.132812 217.78125 284.75 268.359375 264.617188 315.34375 C 244.484375 362.332031 234.097656 412.910156 234.097656 464.023438 L 234.097656 528.964844 L 284.960938 528.964844 L 284.960938 464.023438 C 284.960938 412.910156 295.347656 362.332031 315.480469 315.34375 C 335.609375 268.359375 345.996094 217.78125 345.996094 166.664062 L 345.996094 162.757812 L 295.132812 162.757812 Z M 295.132812 166.664062 " style=" stroke:none;fill-rule:nonzero;fill:rgb(94.901961%,63.921569%,17.254902%);fill-opacity:1;" />
<path d="M 295.105469 81.378906 L 345.996094 81.378906 L 345.996094 162.757812 L 295.105469 162.757812 Z M 295.105469 81.378906 " style=" stroke:none;fill-rule:nonzero;fill:rgb(96.862745%,77.254902%,46.27451%);fill-opacity:1;" />
</g>
</svg>