<?xml version="1.0" encoding="iso-8859-1"?>
<!-- Generator: Adobe Illustrator 19.0.0, SVG Export Plug-In . SVG Version: 6.00 Build 0)  -->
<svg version="1.1" id="Capa_1" xmlns="http://www.w3.org/2000/svg" xmlns:xlink="http://www.w3.org/1999/xlink" x="0px" y="0px"
	 viewBox="0 0 512 512" style="enable-background:new 0 0 512 512;" xml:space="preserve">
<rect x="238.87" y="100.24" style="fill:#761847;" width="34.26" height="80.38"/>
<path style="fill:#FFDB0C;" d="M227.843,94.786L227.843,94.786c-13.981-13.981-15.586-36.103-3.769-51.955L256,0l31.926,42.831
	c11.816,15.852,10.212,37.974-3.769,51.955l0,0C268.606,110.336,243.394,110.336,227.843,94.786z"/>
<path style="fill:#FBBF00;" d="M256,0l31.926,42.831c11.816,15.852,10.212,37.974-3.769,51.955l0,0
	c-7.775,7.775-17.966,11.663-28.157,11.663L256,0z"/>
<polygon style="fill:#EB318B;" points="153.776,165.617 296.374,165.617 296.374,437.889 367.443,437.889 367.443,512 144.557,512 
	144.557,437.889 222.263,437.889 222.263,239.728 153.776,239.728 "/>
<polygon style="fill:#AF2469;" points="367.443,437.889 296.374,437.889 296.374,165.617 256,165.617 256,512 367.443,512 "/>
<g>
</g>
<g>
</g>
<g>
</g>
<g>
</g>
<g>
</g>
<g>
</g>
<g>
</g>
<g>
</g>
<g>
</g>
<g>
</g>
<g>
</g>
<g>
</g>
<g>
</g>
<g>
</g>
<g>
</g>
</svg>
