<svg height="512pt" viewBox="0 -62 512 512" width="512pt" xmlns="http://www.w3.org/2000/svg"><path d="m512 10.300781v366.726563c0 5.6875-4.613281 10.300781-10.300781 10.300781h-491.398438c-5.6875 0-10.300781-4.613281-10.300781-10.300781v-366.726563c0-5.6875 4.613281-10.300781 10.300781-10.300781h491.398438c5.6875 0 10.300781 4.613281 10.300781 10.300781zm0 0" fill="#717177"/><path d="m512 10.300781v366.726563c0 5.6875-4.613281 10.300781-10.300781 10.300781h-123.394531c113.976562-98.660156 111.441406-328.0625 108.753906-387.328125h14.640625c5.6875 0 10.300781 4.613281 10.300781 10.300781zm0 0" fill="#5f5f68"/><path d="m512 10.300781v54.632813h-512v-54.632813c0-5.6875 4.613281-10.300781 10.300781-10.300781h491.398438c5.6875 0 10.300781 4.613281 10.300781 10.300781zm0 0" fill="#ffb800"/><path d="m512 10.300781v54.632813h-24.550781c.847656-28.289063.238281-51.191406-.390625-64.933594h14.640625c5.6875 0 10.300781 4.613281 10.300781 10.300781zm0 0" fill="#ff9700"/><g fill="#ff7300"><path d="m41.253906 40.195312h-.117187c-4.265625 0-7.726563-3.460937-7.726563-7.726562s3.460938-7.726562 7.726563-7.726562h.117187c4.269532 0 7.726563 3.460937 7.726563 7.726562s-3.457031 7.726562-7.726563 7.726562zm0 0"/><path d="m64.578125 40.195312h-.113281c-4.269532 0-7.726563-3.460937-7.726563-7.726562s3.457031-7.726562 7.726563-7.726562h.113281c4.269531 0 7.726563 3.460937 7.726563 7.726562.003906 4.265625-3.457032 7.726562-7.726563 7.726562zm0 0"/><path d="m87.90625 40.195312h-.117188c-4.265624 0-7.722656-3.460937-7.722656-7.726562s3.457032-7.726562 7.722656-7.726562h.117188c4.269531 0 7.726562 3.460937 7.726562 7.726562s-3.457031 7.726562-7.726562 7.726562zm0 0"/><path d="m470.863281 40.195312h-14.378906c-4.265625 0-7.726563-3.460937-7.726563-7.726562s3.460938-7.726562 7.726563-7.726562h14.378906c4.265625 0 7.726563 3.460937 7.726563 7.726562s-3.460938 7.726562-7.726563 7.726562zm0 0"/></g><path d="m464.261719 130.234375v204.675781c0 5.6875-4.617188 10.304688-10.304688 10.304688h-204.675781c-5.6875 0-10.300781-4.617188-10.300781-10.304688v-204.675781c0-5.683594 4.613281-10.300781 10.300781-10.300781h204.675781c5.6875 0 10.304688 4.617187 10.304688 10.300781zm0 0" fill="#ffb800"/><path d="m464.261719 130.234375v204.675781c0 5.6875-4.617188 10.304688-10.304688 10.304688h-52.425781c42.628906-63.140625 36.210938-189.398438 33.398438-225.28125h19.027343c5.6875 0 10.304688 4.617187 10.304688 10.300781zm0 0" fill="#ff9700"/><path d="m238.980469 224.816406v110.09375c0 5.691406 4.613281 10.304688 10.300781 10.304688h204.675781c5.691407 0 10.304688-4.613282 10.304688-10.304688v-59.863281c-43.546875-16.902344-130.195313-45.667969-225.28125-50.230469zm0 0" fill="#45259c"/><path d="m464.261719 244.070312v90.839844c0 5.6875-4.617188 10.304688-10.304688 10.304688h-204.675781c-5.6875 0-10.300781-4.617188-10.300781-10.304688v-40.609375c38.695312-15.019531 111.421875-39.402343 193.859375-47.851562 10.332031-1.058594 20.832031-1.875 31.421875-2.378907zm0 0" fill="#7a48ff"/><path d="m464.261719 244.070312v90.839844c0 5.6875-4.617188 10.304688-10.304688 10.304688h-52.425781c17.453125-25.847656 26.683594-62.285156 31.308594-98.765625 10.332031-1.058594 20.832031-1.875 31.421875-2.378907zm0 0" fill="#5c32cf"/><path d="m279.363281 133.699219c0 18.5625-15.046875 33.609375-33.609375 33.609375-18.558594 0-33.605468-15.046875-33.605468-33.609375 0-18.558594 15.046874-33.605469 33.605468-33.605469 18.5625 0 33.609375 15.046875 33.609375 33.605469zm0 0" fill="#ff2953"/><path d="m242.265625 153.539062c-2.074219 0-4.144531-.828124-5.664063-2.46875-2.902343-3.128906-2.71875-8.019531.40625-10.921874l6.945313-6.445313-6.945313-6.449219c-3.128906-2.902344-3.3125-7.789062-.40625-10.917968 2.902344-3.128907 7.792969-3.3125 10.917969-.40625l13.050781 12.109374c1.574219 1.460938 2.46875 3.515626 2.46875 5.664063s-.894531 4.199219-2.46875 5.660156l-13.050781 12.113281c-1.488281 1.378907-3.375 2.0625-5.253906 2.0625zm0 0" fill="#ff9293"/><path d="m139.425781 160.613281h-91.6875c-4.269531 0-7.726562-3.460937-7.726562-7.726562s3.457031-7.726563 7.726562-7.726563h91.683594c4.269531 0 7.726563 3.460938 7.726563 7.726563s-3.457032 7.726562-7.722657 7.726562zm0 0" fill="#ffb800"/><path d="m184.753906 212.722656h-137.015625c-4.269531 0-7.726562-3.460937-7.726562-7.726562s3.457031-7.726563 7.726562-7.726563h137.011719c4.269531 0 7.726562 3.460938 7.726562 7.726563s-3.457031 7.726562-7.722656 7.726562zm0 0" fill="#e8e6ed"/><path d="m184.753906 237.605469h-137.015625c-4.269531 0-7.726562-3.457031-7.726562-7.726563 0-4.265625 3.457031-7.726562 7.726562-7.726562h137.011719c4.269531 0 7.726562 3.460937 7.726562 7.726562 0 4.269532-3.457031 7.726563-7.722656 7.726563zm0 0" fill="#e8e6ed"/><path d="m184.753906 262.488281h-137.015625c-4.269531 0-7.726562-3.457031-7.726562-7.722656 0-4.269531 3.457031-7.726563 7.726562-7.726563h137.011719c4.269531 0 7.726562 3.457032 7.726562 7.726563 0 4.265625-3.457031 7.722656-7.722656 7.722656zm0 0" fill="#e8e6ed"/><path d="m110.375 316.535156h-49.042969c-7.507812 0-13.59375-6.085937-13.59375-13.59375 0-7.511718 6.085938-13.597656 13.59375-13.597656h49.042969c7.511719 0 13.597656 6.089844 13.597656 13.597656 0 7.507813-6.089844 13.59375-13.597656 13.59375zm0 0" fill="#ff2953"/></svg>