<svg width="40" height="40" viewBox="0 0 40 40" fill="none" xmlns="http://www.w3.org/2000/svg">
<path d="M25.7449 23.4259C25.8671 23.2379 25.8137 22.9865 25.6259 22.8643C25.5224 22.797 25.393 22.7807 25.2762 22.8197C25.119 22.8555 24.9303 22.8962 24.8125 22.8197C24.897 22.8746 24.936 22.9792 24.962 23.0719C24.9767 23.1243 24.9884 23.1777 24.9982 23.2312C25.0065 23.2759 25.0148 23.3192 25.0307 23.3606C25.0369 23.3767 25.0442 23.3924 25.053 23.4078C25.0849 23.4631 25.1298 23.5104 25.1833 23.5451C25.3713 23.6672 25.6226 23.6139 25.7449 23.4259Z" fill="#612685"/>
<path d="M25.7503 24.4411C25.937 24.3007 25.9743 24.0356 25.8339 23.8489C25.7566 23.7462 25.6358 23.6842 25.5076 23.6806C25.3409 23.6597 25.1417 23.6323 25.0537 23.5154C25.1169 23.5994 25.1177 23.7155 25.1101 23.8156C25.1058 23.872 25.0983 23.9285 25.0889 23.9843C25.0811 24.031 25.0738 24.0763 25.0746 24.1225C25.0749 24.1404 25.0765 24.1585 25.0796 24.1767C25.0911 24.2422 25.1182 24.3045 25.1582 24.3575C25.2986 24.5441 25.5637 24.5816 25.7503 24.4411Z" fill="#612685"/>
<path d="M25.3922 25.4364C25.6249 25.3654 25.756 25.1193 25.685 24.8866C25.6459 24.7584 25.5498 24.6547 25.4255 24.6055C25.2699 24.5257 25.0846 24.4278 25.0401 24.282C25.072 24.3866 25.0314 24.5007 24.9884 24.5959C24.9641 24.6497 24.9366 24.7023 24.9075 24.7536C24.8832 24.7965 24.8599 24.8382 24.8443 24.8838C24.8383 24.9014 24.8334 24.9196 24.8299 24.9386C24.8179 25.0068 24.8222 25.0774 24.8424 25.1436C24.9134 25.3764 25.1596 25.5074 25.3922 25.4364Z" fill="#612685"/>
<path d="M24.6876 26.2833C24.9406 26.2967 25.1566 26.1025 25.17 25.8494C25.1773 25.7101 25.1202 25.5743 25.0161 25.4819C24.8922 25.3482 24.7457 25.1865 24.7541 25.028C24.748 25.1417 24.6677 25.239 24.5917 25.3169C24.5487 25.3609 24.503 25.4025 24.4563 25.4423C24.4172 25.4756 24.3796 25.5083 24.348 25.5473C24.3358 25.5623 24.3246 25.5784 24.3144 25.5958C24.2782 25.6582 24.2575 25.729 24.2536 25.801C24.2403 26.0538 24.4345 26.2699 24.6876 26.2833Z" fill="#612685"/>
<path d="M23.6963 26.8612C23.9392 26.9644 24.2198 26.8513 24.3232 26.6084C24.38 26.4746 24.3725 26.3214 24.3034 26.1937C24.2297 26.0188 24.1439 25.8083 24.2087 25.656C24.1622 25.7652 24.0489 25.8317 23.9468 25.8808C23.8891 25.9085 23.8295 25.9331 23.7695 25.9555C23.7195 25.9741 23.671 25.9927 23.6262 26.0196C23.6089 26.0299 23.5922 26.0417 23.5761 26.0551C23.5185 26.1033 23.4728 26.1651 23.4435 26.2342C23.3402 26.4773 23.4534 26.7579 23.6963 26.8612Z" fill="#612685"/>
<path d="M22.5194 27.0738C22.7204 27.2615 23.0354 27.2506 23.2231 27.0496C23.3264 26.939 23.3736 26.7862 23.3515 26.6367C23.3417 26.4392 23.3328 26.2026 23.4503 26.0767C23.3659 26.1671 23.2313 26.1918 23.1139 26.2035C23.0476 26.2101 22.9805 26.2129 22.9139 26.2134C22.8582 26.2139 22.8041 26.2147 22.7508 26.2251C22.7301 26.2292 22.7096 26.2346 22.689 26.2421C22.6155 26.2688 22.5488 26.3131 22.4954 26.3703C22.3076 26.5711 22.3185 26.8862 22.5194 27.0738Z" fill="#612685"/>
<path d="M21.2928 26.8627C21.4227 27.118 21.7349 27.2197 21.9902 27.0898C22.1307 27.0182 22.2314 26.8856 22.263 26.7314C22.3238 26.5346 22.3993 26.2997 22.5593 26.2183C22.4445 26.2767 22.3039 26.2531 22.1848 26.2226C22.1175 26.2054 22.0508 26.1842 21.9854 26.161C21.9307 26.1415 21.8775 26.1231 21.8216 26.1143C21.7999 26.1109 21.7778 26.109 21.7551 26.1088C21.6737 26.1087 21.5926 26.1284 21.52 26.1653C21.2646 26.2953 21.163 26.6075 21.2928 26.8627Z" fill="#612685"/>
<path d="M20.1671 26.2191C20.2033 26.5153 20.4727 26.726 20.7689 26.6898C20.9319 26.67 21.0777 26.5759 21.1635 26.4362C21.293 26.2652 21.4507 26.0623 21.6362 26.0396C21.5031 26.0559 21.3739 25.9826 21.2681 25.9104C21.2084 25.8696 21.1507 25.8251 21.0949 25.7791C21.0483 25.7407 21.0028 25.7037 20.9511 25.6751C20.9312 25.664 20.9103 25.6542 20.8881 25.6461C20.8083 25.6169 20.722 25.6072 20.6377 25.6175C20.3417 25.6535 20.131 25.9229 20.1671 26.2191Z" fill="#612685"/>
<path d="M19.2939 25.1878C19.2238 25.4906 19.4125 25.7928 19.7153 25.8629C19.882 25.9015 20.0582 25.8615 20.1921 25.7553C20.3798 25.6341 20.6064 25.4917 20.7961 25.5355C20.66 25.5041 20.5596 25.3863 20.4818 25.2778C20.4379 25.2166 20.3972 25.1526 20.3591 25.0876C20.3271 25.0334 20.2958 24.9809 20.2555 24.9346C20.2398 24.9166 20.2229 24.8995 20.204 24.8837C20.1362 24.8267 20.0553 24.7864 19.9691 24.7666C19.6662 24.6964 19.364 24.885 19.2939 25.1878Z" fill="#612685"/>
<path d="M18.8077 23.8675C18.6312 24.1388 18.7082 24.5019 18.9796 24.6784C19.129 24.7755 19.3158 24.7991 19.4845 24.7429C19.7115 24.6911 19.984 24.6324 20.154 24.743C20.032 24.6637 19.9758 24.5126 19.9383 24.3788C19.9171 24.3032 19.9001 24.226 19.8859 24.1489C19.874 24.0845 19.862 24.0218 19.8391 23.9621C19.8301 23.939 19.8196 23.9162 19.8068 23.894C19.7608 23.8142 19.6958 23.7459 19.6186 23.6957C19.3473 23.5191 18.9842 23.596 18.8077 23.8675Z" fill="#612685"/>
<path d="M18.8011 22.4015C18.5316 22.6043 18.4776 22.9871 18.6804 23.2565C18.792 23.4049 18.9665 23.4944 19.1518 23.4995C19.3923 23.5297 19.6801 23.5693 19.8071 23.7382C19.7159 23.6171 19.7147 23.4492 19.7256 23.3048C19.7318 23.2232 19.7427 23.1417 19.7563 23.061C19.7676 22.9937 19.7782 22.9281 19.777 22.8615C19.7765 22.8357 19.7743 22.8097 19.7697 22.7834C19.7532 22.6888 19.7139 22.5989 19.6562 22.5222C19.4533 22.2527 19.0704 22.1987 18.8011 22.4015Z" fill="#612685"/>
<path d="M19.3178 20.9644C18.9818 21.0668 18.7925 21.4224 18.8951 21.7584C18.9516 21.9433 19.0903 22.0931 19.2699 22.1642C19.4947 22.2794 19.7622 22.4207 19.8263 22.6312C19.7802 22.4802 19.8388 22.3155 19.901 22.1779C19.9361 22.1004 19.9759 22.0244 20.0179 21.9502C20.0529 21.8884 20.0865 21.828 20.1092 21.7623C20.1179 21.7368 20.125 21.7106 20.1299 21.6831C20.1474 21.5847 20.141 21.4826 20.1119 21.3871C20.0092 21.0511 19.6538 20.8619 19.3178 20.9644Z" fill="#612685"/>
<path d="M20.3343 19.7416C19.9689 19.7222 19.6569 20.0028 19.6376 20.3681C19.627 20.5692 19.7094 20.7654 19.8599 20.8989C20.0388 21.0917 20.2503 21.3254 20.2382 21.5543C20.2469 21.39 20.363 21.2497 20.4727 21.1373C20.5346 21.0738 20.6007 21.0136 20.6681 20.956C20.7245 20.9079 20.779 20.8608 20.8244 20.8045C20.8421 20.7828 20.8584 20.7596 20.8729 20.7344C20.9251 20.6444 20.9551 20.5421 20.9606 20.4382C20.9803 20.0727 20.6997 19.7609 20.3343 19.7416Z" fill="#612685"/>
<path d="M21.7656 18.907C21.4149 18.7578 21.0096 18.9212 20.8604 19.2721C20.7783 19.4652 20.7892 19.6865 20.8889 19.8708C20.9954 20.1233 21.1192 20.4274 21.0257 20.6471C21.0928 20.4894 21.2565 20.3934 21.4039 20.3224C21.4872 20.2824 21.5733 20.247 21.6599 20.2147C21.7322 20.1877 21.8022 20.161 21.8669 20.1222C21.8919 20.1071 21.9161 20.0903 21.9392 20.0708C22.0223 20.0012 22.0882 19.9119 22.1306 19.8121C22.2799 19.4614 22.1164 19.0561 21.7656 18.907Z" fill="#612685"/>
<path d="M23.4643 18.6001C23.1741 18.3292 22.7192 18.3448 22.4482 18.635C22.2989 18.7949 22.2307 19.0153 22.2628 19.2312C22.2771 19.5163 22.2899 19.8581 22.1201 20.0399C22.2419 19.9094 22.4364 19.8737 22.606 19.8569C22.7018 19.8474 22.7987 19.8433 22.8949 19.8426C22.9753 19.8419 23.0534 19.8407 23.1304 19.8257C23.1602 19.8199 23.1899 19.812 23.2196 19.8013C23.3259 19.7628 23.4221 19.6988 23.4992 19.6162C23.7701 19.3259 23.7545 18.871 23.4643 18.6001Z" fill="#612685"/>
<path d="M25.2358 18.9047C25.0483 18.5361 24.5974 18.3894 24.2289 18.5769C24.0259 18.6801 23.8806 18.8717 23.835 19.0945C23.7473 19.3787 23.6382 19.7177 23.4072 19.8352C23.573 19.7509 23.7759 19.7852 23.948 19.8291C24.0453 19.8538 24.1414 19.8844 24.2359 19.918C24.3148 19.946 24.3917 19.9727 24.4724 19.9854C24.5037 19.9904 24.5356 19.9933 24.5684 19.9933C24.6862 19.9934 24.8031 19.9651 24.9079 19.9118C25.2765 19.7241 25.4233 19.2733 25.2358 18.9047Z" fill="#612685"/>
<path d="M26.8616 19.8342C26.8094 19.4066 26.4204 19.1023 25.9928 19.1545C25.7574 19.1833 25.5468 19.3191 25.4228 19.5208C25.2357 19.7677 25.0081 20.0607 24.7402 20.0934C24.9324 20.07 25.119 20.1758 25.2718 20.2801C25.3581 20.3391 25.4413 20.4033 25.5219 20.4698C25.5892 20.5253 25.655 20.5789 25.7294 20.62C25.7584 20.636 25.7885 20.6502 25.8206 20.6619C25.9358 20.704 26.0604 20.7179 26.1821 20.7031C26.6096 20.6508 26.9139 20.2618 26.8616 19.8342Z" fill="#612685"/>
<path d="M28.1221 21.3234C28.2233 20.8861 27.9509 20.4497 27.5137 20.3486C27.2731 20.2929 27.0186 20.3507 26.8254 20.5039C26.5543 20.679 26.227 20.8847 25.9531 20.8213C26.1497 20.8668 26.2945 21.0368 26.4069 21.1934C26.4704 21.2818 26.529 21.3744 26.5841 21.4681C26.6302 21.5464 26.6756 21.6222 26.7338 21.6891C26.7564 21.715 26.7809 21.7397 26.8082 21.7626C26.9059 21.8449 27.0229 21.9029 27.1473 21.9317C27.5845 22.0329 28.021 21.7605 28.1221 21.3234Z" fill="#612685"/>
<path d="M28.8251 23.2299C29.0799 22.838 28.9687 22.3137 28.5768 22.0589C28.3611 21.9186 28.0914 21.8847 27.8476 21.9659C27.5199 22.0406 27.1263 22.1255 26.8809 21.9657C27.057 22.0803 27.1383 22.2984 27.1925 22.4917C27.2231 22.6009 27.2475 22.7123 27.2682 22.8238C27.2854 22.9169 27.3027 23.0072 27.3359 23.0935C27.3488 23.1268 27.364 23.1597 27.3825 23.1918C27.4489 23.3071 27.5427 23.4057 27.6542 23.4781C28.046 23.7329 28.5702 23.6218 28.8251 23.2299Z" fill="#612685"/>
<path d="M28.8347 25.3467C29.2237 25.0539 29.3017 24.5011 29.0089 24.112C28.8477 23.8978 28.5959 23.7685 28.3282 23.7611C27.9808 23.7176 27.5653 23.6603 27.3818 23.4166C27.5134 23.5915 27.5152 23.834 27.4995 24.0425C27.4906 24.1603 27.4748 24.278 27.4553 24.3944C27.439 24.4917 27.4238 24.5862 27.4255 24.6825C27.4262 24.7198 27.4294 24.7573 27.436 24.7954C27.4599 24.9319 27.5166 25.0618 27.6 25.1724C27.8929 25.5614 28.4456 25.6395 28.8347 25.3467Z" fill="#612685"/>
<path d="M28.0898 27.4218C28.5749 27.2738 28.8483 26.7606 28.7003 26.2754C28.6188 26.0083 28.4183 25.7919 28.1591 25.6894C27.8346 25.5229 27.4483 25.3189 27.3556 25.0149C27.4221 25.233 27.3375 25.4709 27.2478 25.6694C27.1971 25.7814 27.1397 25.8912 27.079 25.9981C27.0284 26.0874 26.9797 26.1746 26.9471 26.2695C26.9345 26.3062 26.9243 26.3441 26.9172 26.3836C26.892 26.5259 26.9013 26.6731 26.9434 26.8112C27.0914 27.2966 27.6047 27.5699 28.0898 27.4218Z" fill="#612685"/>
<path d="M26.6198 29.1876C27.1475 29.2155 27.5978 28.8106 27.6258 28.2829C27.6412 27.9924 27.5221 27.7093 27.3049 27.5165C27.0465 27.238 26.7411 26.9007 26.7586 26.5701C26.746 26.8073 26.5784 27.01 26.4199 27.1723C26.3304 27.2639 26.2351 27.3509 26.1376 27.434C26.0563 27.5035 25.9777 27.5714 25.9119 27.6527C25.8865 27.6842 25.8629 27.7176 25.8419 27.7538C25.7666 27.884 25.7232 28.0314 25.7152 28.1816C25.6872 28.7093 26.0922 29.1597 26.6198 29.1876Z" fill="#612685"/>
<path d="M24.5532 30.3927C25.0596 30.608 25.6449 30.372 25.8602 29.8655C25.9787 29.5867 25.963 29.2671 25.8191 29.001C25.6654 28.6363 25.4866 28.1973 25.6215 27.88C25.5247 28.1077 25.2884 28.2464 25.0755 28.3488C24.9551 28.4066 24.8309 28.4577 24.7059 28.5044C24.6015 28.5433 24.5003 28.582 24.4071 28.638C24.3709 28.6598 24.336 28.6841 24.3025 28.7121C24.1824 28.8127 24.0873 28.9416 24.026 29.0857C23.8107 29.5923 24.0467 30.1774 24.5532 30.3927Z" fill="#612685"/>
<path d="M22.1001 30.836C22.5192 31.2272 23.1761 31.2047 23.5673 30.7856C23.7827 30.5549 23.8812 30.2364 23.8351 29.9247C23.8145 29.513 23.796 29.0195 24.041 28.757C23.8651 28.9454 23.5845 28.997 23.3395 29.0213C23.2012 29.035 23.0613 29.0408 22.9223 29.042C22.8063 29.0429 22.6935 29.0446 22.5822 29.0663C22.5392 29.0747 22.4963 29.0861 22.4535 29.1016C22.3002 29.1572 22.1611 29.2495 22.0498 29.3688C21.6586 29.7878 21.6811 30.4447 22.1001 30.836Z" fill="#612685"/>
<path d="M19.5426 30.3959C19.8134 30.9282 20.4644 31.1401 20.9967 30.8693C21.2897 30.7202 21.4996 30.4436 21.5655 30.122C21.6921 29.7117 21.8497 29.2221 22.1832 29.0524C21.9438 29.1742 21.6507 29.1247 21.4022 29.0613C21.2619 29.0254 21.123 28.9812 20.9865 28.9329C20.8726 28.8925 20.7616 28.854 20.645 28.8356C20.5998 28.8284 20.5538 28.8243 20.5065 28.8243C20.3364 28.8241 20.1676 28.8649 20.0161 28.9419C19.4838 29.2127 19.2718 29.8637 19.5426 30.3959Z" fill="#612685"/>
<path d="M17.195 29.0538C17.2704 29.6713 17.8321 30.1106 18.4496 30.0352C18.7896 29.9936 19.0935 29.7976 19.2725 29.5063C19.5426 29.1498 19.8713 28.7266 20.2581 28.6794C19.9805 28.7133 19.7112 28.5604 19.4906 28.4098C19.3661 28.3248 19.2459 28.232 19.1294 28.136C19.0323 28.0559 18.9373 27.9786 18.8297 27.919C18.7881 27.8959 18.7445 27.8755 18.6981 27.8586C18.5318 27.7979 18.3519 27.7776 18.1762 27.7991C17.5588 27.8746 17.1195 28.4363 17.195 29.0538Z" fill="#612685"/>
<path d="M15.3742 26.9036C15.2281 27.5349 15.6214 28.1652 16.2527 28.3113C16.6003 28.3918 16.9676 28.3082 17.2467 28.0868C17.6381 27.834 18.1106 27.537 18.5061 27.6285C18.2223 27.5627 18.0132 27.3172 17.8509 27.0911C17.7593 26.9634 17.6747 26.8299 17.595 26.6944C17.5284 26.5813 17.463 26.4719 17.3789 26.3753C17.3463 26.3379 17.3109 26.3023 17.2716 26.2692C17.1304 26.1505 16.9615 26.0666 16.7819 26.025C16.1506 25.879 15.5203 26.2723 15.3742 26.9036Z" fill="#612685"/>
<path d="M14.3588 24.1505C13.9909 24.7165 14.1513 25.4735 14.7172 25.8414C15.0288 26.044 15.4181 26.0931 15.7702 25.9759C16.2434 25.8678 16.8117 25.7455 17.1663 25.976C16.9119 25.8106 16.7947 25.4957 16.7164 25.2166C16.6721 25.059 16.6369 24.8981 16.6071 24.7371C16.5823 24.6027 16.5572 24.4723 16.5093 24.3478C16.4908 24.2995 16.4688 24.2521 16.4421 24.2058C16.3462 24.0392 16.2108 23.897 16.0497 23.7923C15.4839 23.4241 14.7268 23.5846 14.3588 24.1505Z" fill="#612685"/>
<path d="M14.3465 21.094C13.7847 21.5168 13.672 22.315 14.0949 22.8767C14.3277 23.186 14.6913 23.3728 15.0777 23.3835C15.5793 23.4463 16.1793 23.529 16.4442 23.881C16.2541 23.6284 16.2515 23.2784 16.2743 22.9773C16.2871 22.8073 16.3099 22.6372 16.3383 22.4691C16.3618 22.3288 16.3838 22.1921 16.3812 22.053C16.3802 21.9992 16.3756 21.945 16.366 21.8901C16.3316 21.6929 16.2496 21.5054 16.1293 21.3456C15.7064 20.7838 14.9083 20.6712 14.3465 21.094Z" fill="#612685"/>
<path d="M15.4238 18.0975C14.7233 18.3112 14.3287 19.0524 14.5425 19.7529C14.6601 20.1387 14.9495 20.451 15.3239 20.5992C15.7925 20.8394 16.3503 21.1341 16.4843 21.573C16.3881 21.258 16.5104 20.9145 16.6399 20.6278C16.713 20.466 16.7959 20.3076 16.8835 20.1531C16.9566 20.0241 17.0267 19.8983 17.0738 19.7612C17.092 19.7082 17.1069 19.6535 17.117 19.5962C17.1535 19.391 17.1401 19.1782 17.0793 18.9788C16.8656 18.2783 16.1244 17.8837 15.4238 18.0975Z" fill="#612685"/>
<path d="M17.5443 15.5477C16.7825 15.5073 16.1322 16.0922 16.0918 16.8541C16.0695 17.2736 16.2416 17.6825 16.5552 17.9608C16.9284 18.3629 17.3694 18.8501 17.3441 19.3274C17.3623 18.9849 17.6043 18.6922 17.8331 18.4578C17.9623 18.3254 18.1 18.1999 18.2407 18.0799C18.3583 17.9797 18.4718 17.8815 18.5667 17.7642C18.6034 17.7187 18.6373 17.6704 18.6677 17.6181C18.7765 17.4301 18.8393 17.2171 18.8507 17.0003C18.891 16.2384 18.3061 15.5881 17.5443 15.5477Z" fill="#612685"/>
<path d="M20.5287 13.8076C19.7973 13.4966 18.9523 13.8375 18.6415 14.5689C18.4702 14.9716 18.493 15.433 18.7009 15.8172C18.9229 16.3438 19.1809 16.9778 18.9862 17.436C19.1259 17.1072 19.4671 16.9069 19.7747 16.759C19.9484 16.6755 20.1277 16.6017 20.3083 16.5343C20.459 16.478 20.6051 16.4223 20.7399 16.3413C20.792 16.3099 20.8425 16.2748 20.8908 16.2343C21.0643 16.089 21.2015 15.903 21.2901 15.6948C21.6009 14.9636 21.26 14.1186 20.5287 13.8076Z" fill="#612685"/>
<path d="M24.0702 13.1677C23.4651 12.6027 22.5166 12.6353 21.9517 13.2404C21.6406 13.5736 21.4985 14.0334 21.565 14.4836C21.5947 15.0781 21.6215 15.7906 21.2676 16.1696C21.5215 15.8976 21.9268 15.8231 22.2807 15.7879C22.4805 15.768 22.6823 15.7597 22.8831 15.7581C23.0506 15.7568 23.2135 15.7543 23.3742 15.7229C23.4364 15.7108 23.4984 15.6944 23.5601 15.6719C23.7817 15.5916 23.9824 15.4583 24.1431 15.2862C24.7079 14.6812 24.6753 13.7326 24.0702 13.1677Z" fill="#612685"/>
<path d="M27.764 13.8029C27.373 13.0344 26.4329 12.7283 25.6644 13.1193C25.2413 13.3347 24.9382 13.734 24.843 14.1984C24.6603 14.7909 24.4327 15.4979 23.9512 15.7429C24.2967 15.5671 24.72 15.6385 25.0788 15.7302C25.2813 15.782 25.4819 15.8457 25.6791 15.9156C25.8436 15.974 26.0039 16.0296 26.1723 16.0561C26.2375 16.0664 26.304 16.0724 26.3724 16.0724C26.6179 16.0728 26.8618 16.0138 27.0806 15.9025C27.8489 15.5115 28.155 14.5715 27.764 13.8029Z" fill="#612685"/>
<path d="M31.1549 15.741C31.0459 14.8494 30.2348 14.2149 29.3432 14.3238C28.8523 14.3838 28.4134 14.6669 28.1547 15.0875C27.7647 15.6023 27.2901 16.2133 26.7314 16.2815C27.1323 16.2325 27.5212 16.4533 27.8397 16.6707C28.0197 16.7935 28.1932 16.9274 28.3612 17.0661C28.5014 17.1818 28.6386 17.2933 28.794 17.3794C28.8541 17.4128 28.9171 17.4422 28.9841 17.4667C29.2242 17.5544 29.484 17.5837 29.7377 17.5526C30.6294 17.4438 31.2638 16.6326 31.1549 15.741Z" fill="#612685"/>
<path d="M33.7822 18.8458C33.9932 17.9342 33.4252 17.0242 32.5137 16.8131C32.0117 16.6969 31.4813 16.8176 31.0783 17.1372C30.5132 17.5022 29.8309 17.9311 29.2598 17.7989C29.6696 17.8938 29.9716 18.2484 30.206 18.5748C30.3384 18.759 30.4606 18.952 30.5756 19.1476C30.6716 19.3109 30.7661 19.4689 30.8876 19.6085C30.9346 19.6625 30.9857 19.7139 31.0425 19.7616C31.2463 19.9331 31.4902 20.0542 31.7496 20.1143C32.6612 20.3253 33.5711 19.7574 33.7822 18.8458Z" fill="#612685"/>
<path d="M35.2481 22.8212C35.7794 22.0042 35.5477 20.911 34.7306 20.3797C34.2807 20.0871 33.7186 20.0163 33.2101 20.1856C32.5269 20.3415 31.7062 20.5183 31.1943 20.1855C31.5617 20.4244 31.731 20.8791 31.8441 21.2821C31.9079 21.5097 31.9588 21.7421 32.0018 21.9745C32.0376 22.1685 32.0738 22.3568 32.143 22.5367C32.1698 22.6064 32.2015 22.6748 32.2401 22.7418C32.3785 22.9822 32.5741 23.1877 32.8066 23.3388C33.6237 23.87 34.7168 23.6383 35.2481 22.8212Z" fill="#612685"/>
<path d="M35.2663 27.2348C36.0775 26.6242 36.2401 25.4717 35.6297 24.6605C35.2934 24.2139 34.7685 23.9443 34.2105 23.9287C33.4861 23.838 32.6198 23.7187 32.2373 23.2103C32.5118 23.575 32.5155 24.0804 32.4827 24.5152C32.4641 24.7608 32.4312 25.0063 32.3903 25.2491C32.3563 25.4518 32.3246 25.6491 32.3283 25.8498C32.3296 25.9276 32.3363 26.0058 32.3503 26.0851C32.4002 26.3697 32.5184 26.6405 32.6921 26.8713C33.3025 27.6827 34.455 27.8453 35.2663 27.2348Z" fill="#612685"/>
<path d="M33.7133 31.5617C34.7248 31.2531 35.2946 30.1829 34.986 29.1713C34.8161 28.6143 34.3982 28.1634 33.8576 27.9495C33.1809 27.6026 32.3754 27.1772 32.1821 26.5434C32.3208 26.9981 32.1444 27.4942 31.9573 27.9081C31.8517 28.1418 31.7319 28.3704 31.6054 28.5936C31.4998 28.7799 31.3986 28.9616 31.3306 29.1594C31.3043 29.236 31.283 29.315 31.2683 29.3976C31.2157 29.6939 31.235 30.0011 31.3228 30.289C31.6315 31.3005 32.7017 31.8704 33.7133 31.5617Z" fill="#612685"/>
<path d="M30.651 35.2433C31.7511 35.3016 32.6901 34.4571 32.7485 33.3569C32.7806 32.7513 32.5322 32.1609 32.0793 31.7589C31.5405 31.1783 30.9037 30.4749 30.9402 29.7857C30.9139 30.2803 30.5646 30.7029 30.2339 31.0414C30.0473 31.2325 29.8486 31.4137 29.6454 31.5871C29.4757 31.7319 29.3118 31.8737 29.1748 32.0431C29.1217 32.1088 29.0726 32.1784 29.0289 32.2541C28.8717 32.5254 28.7812 32.833 28.7646 33.1461C28.7064 34.246 29.5509 35.1851 30.651 35.2433Z" fill="#612685"/>
<path d="M26.3407 37.756C27.3967 38.2049 28.6168 37.7129 29.0658 36.6567C29.3131 36.0753 29.2802 35.4089 28.9801 34.854C28.6596 34.0938 28.2868 33.1783 28.5681 32.5166C28.3663 32.9915 27.8736 33.2807 27.4294 33.4942C27.1786 33.6148 26.9195 33.7214 26.6589 33.8187C26.4412 33.9 26.2303 33.9803 26.0358 34.0974C25.9605 34.1428 25.8877 34.1935 25.8178 34.2519C25.5673 34.4616 25.3691 34.7303 25.2413 35.0308C24.7924 36.0869 25.2846 37.307 26.3407 37.756Z" fill="#612685"/>
<path d="M21.2274 38.6801C22.1012 39.4958 23.4708 39.4488 24.2866 38.5751C24.7357 38.094 24.941 37.43 24.8449 36.78C24.802 35.9216 24.7633 34.8928 25.2744 34.3452C24.9076 34.738 24.3224 34.8457 23.8116 34.8964C23.5232 34.9251 23.2316 34.9372 22.9417 34.9395C22.6997 34.9414 22.4645 34.9451 22.2326 34.9903C22.1427 35.0078 22.0533 35.0316 21.9642 35.0639C21.6443 35.1798 21.3545 35.3723 21.1225 35.621C20.3066 36.4948 20.3536 37.8644 21.2274 38.6801Z" fill="#612685"/>
<path d="M15.8921 37.7628C16.4568 38.8725 17.8142 39.3144 18.9241 38.7499C19.5351 38.439 19.9726 37.8622 20.11 37.1917C20.3739 36.3362 20.7025 35.3153 21.3978 34.9615C20.8989 35.2153 20.2876 35.1122 19.7696 34.9799C19.477 34.9052 19.1874 34.8132 18.9028 34.7121C18.6653 34.6279 18.4338 34.5476 18.1906 34.5092C18.0964 34.4944 18.0004 34.4858 17.9017 34.4857C17.5473 34.4852 17.195 34.5704 16.8792 34.731C15.7694 35.2956 15.3274 36.653 15.8921 37.7628Z" fill="#612685"/>
<path d="M10.9961 34.9643C11.1534 36.2518 12.3246 37.168 13.6122 37.0106C14.3211 36.924 14.9547 36.5153 15.3282 35.9079C15.8913 35.1645 16.5767 34.2823 17.3833 34.1836C16.8044 34.2544 16.2429 33.9356 15.783 33.6215C15.5232 33.4441 15.2725 33.2508 15.03 33.0505C14.8275 32.8834 14.6295 32.7224 14.4051 32.5981C14.3182 32.55 14.2273 32.5074 14.1307 32.4721C13.7839 32.3454 13.4089 32.3032 13.0426 32.348C11.7549 32.5055 10.8387 33.6767 10.9961 34.9643Z" fill="#612685"/>
<path d="M7.20225 30.481C6.89752 31.7972 7.7176 33.1114 9.03396 33.416C9.75872 33.5838 10.5247 33.4095 11.1066 32.9481C11.9226 32.421 12.9078 31.8017 13.7325 31.9926C13.1407 31.8556 12.7047 31.3435 12.3662 30.8722C12.1751 30.606 11.9986 30.3275 11.8326 30.0451C11.6939 29.8094 11.5575 29.5812 11.382 29.3796C11.3141 29.3016 11.2404 29.2275 11.1584 29.1585C10.864 28.9109 10.512 28.736 10.1373 28.6493C8.82099 28.3446 7.50698 29.1647 7.20225 30.481Z" fill="#612685"/>
<path d="M5.08506 24.7407C4.31787 25.9205 4.65241 27.499 5.83238 28.2662C6.48204 28.6885 7.29388 28.7909 8.02792 28.5466C9.01445 28.3214 10.1996 28.0661 10.9387 28.5468C10.4083 28.2019 10.1638 27.5453 10.0005 26.9633C9.90833 26.6347 9.83478 26.2992 9.77282 25.9635C9.72114 25.6833 9.66879 25.4114 9.569 25.1516C9.53038 25.051 9.4845 24.9522 9.4288 24.8554C9.22888 24.5083 8.94658 24.2116 8.61082 23.9933C7.43073 23.2262 5.85225 23.5607 5.08506 24.7407Z" fill="#612685"/>
<path d="M5.05838 18.3676C3.88701 19.2492 3.65215 20.9135 4.53375 22.0847C5.0192 22.7297 5.77735 23.119 6.58293 23.1414C7.62884 23.2724 8.87968 23.4447 9.4321 24.1787C9.03573 23.652 9.03038 22.9222 9.07793 22.2945C9.10472 21.94 9.15226 21.5853 9.2112 21.2347C9.26043 20.9421 9.30608 20.6573 9.30095 20.3673C9.29894 20.255 9.28923 20.1421 9.26925 20.0275C9.19725 19.6165 9.02658 19.2255 8.77565 18.8922C7.89405 17.7209 6.22975 17.486 5.05838 18.3676Z" fill="#612685"/>
<path d="M7.30268 12.1196C5.842 12.5652 5.01923 14.1106 5.46482 15.5713C5.71017 16.3756 6.3136 17.0268 7.09418 17.3356C8.07132 17.8366 9.2343 18.4509 9.51347 19.366C9.31311 18.7094 9.56794 17.9931 9.83807 17.3955C9.99066 17.058 10.1635 16.7277 10.3461 16.4056C10.4984 16.1366 10.6447 15.8742 10.7429 15.5885C10.7809 15.4779 10.8117 15.3638 10.8328 15.2446C10.9089 14.8166 10.8811 14.3731 10.7543 13.9574C10.3087 12.4968 8.76337 11.674 7.30268 12.1196Z" fill="#612685"/>
<path d="M11.7251 6.80338C10.1365 6.71921 8.78054 7.93869 8.69638 9.52731C8.65005 10.402 9.0087 11.2544 9.66271 11.8349C10.4407 12.6733 11.3603 13.689 11.3075 14.6843C11.3453 13.9701 11.8499 13.3598 12.3272 12.8711C12.5967 12.595 12.8836 12.3335 13.177 12.0831C13.4221 11.8742 13.6587 11.6693 13.8566 11.4247C13.9332 11.3299 14.0041 11.2292 14.0672 11.12C14.2941 10.7281 14.4249 10.2841 14.4489 9.83204C14.5332 8.24353 13.3136 6.88754 11.7251 6.80338Z" fill="#612685"/>
<path d="M17.9484 3.17521C16.4234 2.5269 14.6617 3.23749 14.0134 4.76248C13.6564 5.6021 13.7037 6.56429 14.1372 7.36552C14.5999 8.46344 15.1382 9.78516 14.732 10.7407C15.0234 10.0551 15.7348 9.63737 16.3762 9.32907C16.7384 9.15494 17.1123 9.00113 17.4888 8.86059C17.8031 8.74328 18.1078 8.62719 18.3885 8.45819C18.4972 8.39278 18.6025 8.31945 18.7032 8.23506C19.0648 7.93234 19.3511 7.54423 19.5357 7.11035C20.184 5.58536 19.4734 3.82351 17.9484 3.17521Z" fill="#612685"/>
<path d="M25.3319 1.84087C24.0702 0.662912 22.0925 0.73089 20.9147 1.99256C20.2662 2.6873 19.9697 3.64591 20.1085 4.58455C20.1703 5.82412 20.2262 7.3097 19.4883 8.10021C20.0178 7.53295 20.8629 7.37757 21.6005 7.30423C22.0171 7.26282 22.438 7.24541 22.8564 7.24206C23.2058 7.23927 23.5454 7.23402 23.8805 7.16872C24.0102 7.14338 24.1393 7.10912 24.268 7.06246C24.7299 6.89491 25.1484 6.61708 25.4836 6.25811C26.6615 4.99644 26.5935 3.01871 25.3319 1.84087Z" fill="#612685"/>
</svg>
