<svg height="512pt" viewBox="0 0 512.00002 512" width="512pt" xmlns="http://www.w3.org/2000/svg"><path d="m60.003906 62.929688h451.996094v449.070312h-451.996094zm0 0" fill="#1b5c91"/><path d="m286.003906 62.929688h225.996094v449.070312h-225.996094zm0 0" fill="#0e2e4b"/><path d="m0 0h451.996094v449.070312h-451.996094zm0 0" fill="#00d7df"/><path d="m225.996094 0h226v449.070312h-226zm0 0" fill="#00aadf"/><path d="m60.003906 61.46875h331.988282v269.058594h-331.988282zm0 0" fill="#1b5c91"/><path d="m225.996094 61.46875h165.996094v269.058594h-165.996094zm0 0" fill="#0e2e4b"/><path d="m225.996094 142.828125c7.847656 0 15.363281-6.898437 15-15-.363282-8.128906-6.589844-15-15-15-7.84375 0-15.359375 6.898437-15 15 .367187 8.125 6.59375 15 15 15zm0 0" fill="#fff587"/><path d="m225.996094 112.828125v30c7.847656 0 15.363281-6.898437 15-15-.363282-8.128906-6.589844-15-15-15zm0 0" fill="#fdbf00"/><path d="m214.539062 247.28125v83.246094h177.453126v-58.113282l-94.996094-105.433593zm0 0" fill="#ff9100"/><path d="m60.003906 209.097656v121.429688h216.007813l-138.375-187.390625zm0 0" fill="#fdbf00"/><path d="m391.992188 272.414062-94.996094-105.433593-71 69.140625v94.40625h165.996094zm0 0" fill="#fb4c2e"/><path d="m225.996094 262.796875v67.730469h50.015625zm0 0" fill="#ff9100"/></svg>