<?xml version="1.0" encoding="iso-8859-1"?>
<!-- Generator: Adobe Illustrator 19.0.0, SVG Export Plug-In . SVG Version: 6.00 Build 0)  -->
<svg version="1.1" id="Capa_1" xmlns="http://www.w3.org/2000/svg" xmlns:xlink="http://www.w3.org/1999/xlink" x="0px" y="0px"
	 viewBox="0 0 512 512" style="enable-background:new 0 0 512 512;" xml:space="preserve">
<path style="fill:#925C44;" d="M421.271,162.429l-48.957,104.835L268.428,489.718c-2.097,4.493-5.775,7.758-10.072,9.438
	c-4.288,1.684-9.21,1.764-13.794-0.111c-9.168-3.751-13.779-14.041-10.473-23.38l81.852-231.469l38.575-109.084L421.271,162.429z"/>
<path style="fill:#7C4935;" d="M244.56,499.046c-9.168-3.751-13.779-14.041-10.473-23.38L354.504,135.11l23.746,9.716
	L246.291,480.66C242.673,489.871,241.909,497.961,244.56,499.046z"/>
<path style="fill:#FA3F68;" d="M421.269,162.432C505.306,140.886,447.514,0,447.514,0c-7.488,18.301-25.983,29.54-64.321,45.614
	s-53.723,63.375-28.682,89.501l28.24,38.989"/>
<polygon style="fill:#FCB65F;" points="421.271,162.429 372.314,267.264 315.939,244.197 354.514,135.113 "/>
<polygon style="fill:#E29A4B;" points="335.986,252.4 315.939,244.197 354.514,135.113 378.251,144.826 "/>
<path style="fill:#E5E9EA;" d="M445.984,359.537c-0.178,0.857-0.366,1.63-0.554,2.319c-23.692,86.223-103,150.029-196.295,150.144
	C135.542,512.146,43.584,419.331,45.13,305.415c1.483-109.372,90.433-198.834,199.795-200.902
	c42.401-0.804,81.909,11.345,114.846,32.759l-5.265-2.152l-14.625,41.346c-45.096,5.568-79.193,31.37-79.193,62.375
	c0,20.819,15.387,39.299,39.142,50.884c15.722,7.657,35.099,12.295,56.117,12.588c0.731,0.01,1.462,0.021,2.194,0.021
	c9.861,0,19.378-0.951,28.351-2.726C421.853,292.608,453.286,324.25,445.984,359.537z"/>
<path style="fill:#E02F5E;" d="M382.152,146.422l-27.64-11.31c-25.037-26.126-9.657-73.429,28.679-89.494
	c38.34-16.074,56.835-27.32,64.323-45.618C435.353,58.58,367.355,68.698,382.152,146.422z"/>
<circle style="fill:#53BCE9;" cx="171.611" cy="185.588" r="32.327"/>
<circle style="fill:#FA3F68;" cx="111.263" cy="284.723" r="32.327"/>
<circle style="fill:#566368;" cx="150.06" cy="394.638" r="32.327"/>
<circle style="fill:#FCB65F;" cx="250.271" cy="449.596" r="32.327"/>
<circle style="fill:#47C97F;" cx="356.948" cy="394.638" r="32.327"/>
<path style="fill:#36A6CE;" d="M171.61,225.752c-22.145,0-40.162-18.017-40.162-40.162s18.017-40.162,40.162-40.162
	s40.162,18.017,40.162,40.162C211.772,207.735,193.756,225.752,171.61,225.752z M171.61,161.098
	c-13.505,0-24.492,10.987-24.492,24.492c0,13.505,10.987,24.492,24.492,24.492c13.505,0,24.492-10.987,24.492-24.492
	C196.102,172.085,185.116,161.098,171.61,161.098z"/>
<path style="fill:#E02F5E;" d="M111.267,324.887c-22.145,0-40.162-18.017-40.162-40.162c0-22.145,18.017-40.162,40.162-40.162
	s40.162,18.017,40.162,40.162C151.429,306.871,133.412,324.887,111.267,324.887z M111.267,260.233
	c-13.505,0-24.492,10.987-24.492,24.492s10.987,24.492,24.492,24.492s24.492-10.987,24.492-24.492S124.772,260.233,111.267,260.233z
	"/>
<path style="fill:#435054;" d="M150.059,434.799c-22.145,0-40.162-18.017-40.162-40.162s18.017-40.162,40.162-40.162
	s40.162,18.017,40.162,40.162C190.222,416.782,172.205,434.799,150.059,434.799z M150.059,370.145
	c-13.505,0-24.492,10.987-24.492,24.492s10.987,24.492,24.492,24.492c13.505,0,24.492-10.987,24.492-24.492
	S163.565,370.145,150.059,370.145z"/>
<path style="fill:#E29A4B;" d="M250.274,489.756c-22.145,0-40.162-18.017-40.162-40.162s18.017-40.162,40.162-40.162
	s40.162,18.017,40.162,40.162C290.436,471.739,272.419,489.756,250.274,489.756z M250.274,425.101
	c-13.505,0-24.492,10.987-24.492,24.492c0,13.505,10.987,24.492,24.492,24.492c13.505,0,24.492-10.987,24.492-24.492
	C274.767,436.088,263.779,425.101,250.274,425.101z"/>
<path style="fill:#35B568;" d="M356.954,434.799c-22.145,0-40.162-18.017-40.162-40.162s18.017-40.162,40.162-40.162
	s40.162,18.017,40.162,40.162C397.115,416.782,379.099,434.799,356.954,434.799z M356.954,370.145
	c-13.505,0-24.492,10.987-24.492,24.492s10.987,24.492,24.492,24.492s24.492-10.987,24.492-24.492S370.458,370.145,356.954,370.145z
	"/>
<g>
</g>
<g>
</g>
<g>
</g>
<g>
</g>
<g>
</g>
<g>
</g>
<g>
</g>
<g>
</g>
<g>
</g>
<g>
</g>
<g>
</g>
<g>
</g>
<g>
</g>
<g>
</g>
<g>
</g>
</svg>
