<svg width="51" height="51" viewBox="0 0 51 51" fill="none" xmlns="http://www.w3.org/2000/svg">
<g clip-path="url(#clip0_81_46)">
<path d="M42 31.0001C42 32.1001 41.1 33.0001 40 33.0001H12C10.9 33.0001 10 32.1001 10 31.0001V9.1001C10 8.0001 10.9 7.1001 12 7.1001H40C41.1 7.1001 42 8.0001 42 9.1001V31.0001Z" fill="#E0E0D1"/>
<path d="M8 33L10 30H42L44 33H8Z" fill="white"/>
<path opacity="0.2" d="M26 30C30.4183 30 34 26.4183 34 22C34 17.5817 30.4183 14 26 14C21.5817 14 18 17.5817 18 22C18 26.4183 21.5817 30 26 30Z" fill="#231F20"/>
<path d="M26 26.5C22.4 26.5 19.5 23.6 19.5 20C19.5 16.4 22.4 13.5 26 13.5C29.6 13.5 32.5 16.4 32.5 20C32.5 23.6 29.6 26.5 26 26.5Z" fill="#77B3D4"/>
<path d="M26 15C28.8 15 31 17.2 31 20C31 22.8 28.8 25 26 25C23.2 25 21 22.8 21 20C21 17.2 23.2 15 26 15ZM26 12C21.6 12 18 15.6 18 20C18 24.4 21.6 28 26 28C30.4 28 34 24.4 34 20C34 15.6 30.4 12 26 12Z" fill="#4F5D73"/>
<path opacity="0.2" d="M14.5 30C15.8807 30 17 28.8807 17 27.5C17 26.1193 15.8807 25 14.5 25C13.1193 25 12 26.1193 12 27.5C12 28.8807 13.1193 30 14.5 30Z" fill="#231F20"/>
<path d="M14.5 28C15.8807 28 17 26.8807 17 25.5C17 24.1193 15.8807 23 14.5 23C13.1193 23 12 24.1193 12 25.5C12 26.8807 13.1193 28 14.5 28Z" fill="#C75C5C"/>
<path d="M44 33H8V35H44V33Z" fill="#E0E0D1"/>
<path opacity="0.2" d="M34 15C34 16.1 34.9 17 36 17H40C41.1 17 42 16.1 42 15V11C42 9.9 41.1 9 40 9H36C34.9 9 34 9.9 34 11V15Z" fill="#231F20"/>
<path d="M34 13C34 14.1 34.9 15 36 15H40C41.1 15 42 14.1 42 13V9C42 7.9 41.1 7 40 7H36C34.9 7 34 7.9 34 9V13Z" fill="#4F5D73"/>
<g opacity="0.2">
<path d="M8 39C8 42.3 10.7 45 14 45H38C41.3 45 44 42.3 44 39V37H8V39Z" fill="#231F20"/>
</g>
<path d="M8 37C8 40.3 10.7 43 14 43H38C41.3 43 44 40.3 44 37V35H8V37Z" fill="#4F5D73"/>
</g>
<defs>
<clipPath id="clip0_81_46">
<rect width="51" height="51" fill="white"/>
</clipPath>
</defs>
</svg>
