<svg width="86" height="21" viewBox="0 0 86 21" fill="none" xmlns="http://www.w3.org/2000/svg">
<g clip-path="url(#clip0)">
<path d="M40.6805 17.148C39.8542 17.148 39.0463 17.0493 38.257 16.852C37.4677 16.6423 36.8387 16.3833 36.37 16.075L37.332 14.003C37.776 14.2867 38.3125 14.521 38.9415 14.706C39.5705 14.8787 40.1872 14.965 40.7915 14.965C42.0125 14.965 42.623 14.6628 42.623 14.0585C42.623 13.7748 42.4565 13.5713 42.1235 13.448C41.7905 13.3247 41.2787 13.2198 40.588 13.1335C39.774 13.0102 39.1018 12.8683 38.5715 12.708C38.0412 12.5477 37.5787 12.264 37.184 11.857C36.8017 11.45 36.6105 10.8703 36.6105 10.118C36.6105 9.489 36.7893 8.934 37.147 8.453C37.517 7.95967 38.0473 7.57733 38.738 7.306C39.441 7.03467 40.2673 6.899 41.217 6.899C41.92 6.899 42.6168 6.97917 43.3075 7.1395C44.0105 7.2875 44.5902 7.49717 45.0465 7.7685L44.0845 9.822C43.2088 9.32867 42.253 9.082 41.217 9.082C40.6003 9.082 40.1378 9.16833 39.8295 9.341C39.5212 9.51367 39.367 9.73567 39.367 10.007C39.367 10.3153 39.5335 10.5312 39.8665 10.6545C40.1995 10.7778 40.7298 10.895 41.4575 11.006C42.2715 11.1417 42.9375 11.2897 43.4555 11.45C43.9735 11.598 44.4237 11.8755 44.806 12.2825C45.1883 12.6895 45.3795 13.2568 45.3795 13.9845C45.3795 14.6012 45.1945 15.15 44.8245 15.631C44.4545 16.112 43.9118 16.4882 43.1965 16.7595C42.4935 17.0185 41.6548 17.148 40.6805 17.148ZM47.1601 3.273H50.0461V17H47.1601V3.273ZM62.4741 12.0605C62.4741 12.0975 62.4556 12.3565 62.4186 12.8375H54.8891C55.0247 13.4542 55.3454 13.9413 55.8511 14.299C56.3567 14.6567 56.9857 14.8355 57.7381 14.8355C58.2561 14.8355 58.7124 14.7615 59.1071 14.6135C59.5141 14.4532 59.8902 14.2065 60.2356 13.8735L61.7711 15.5385C60.8337 16.6115 59.4647 17.148 57.6641 17.148C56.5417 17.148 55.5489 16.9322 54.6856 16.5005C53.8222 16.0565 53.1562 15.446 52.6876 14.669C52.2189 13.892 51.9846 13.0102 51.9846 12.0235C51.9846 11.0492 52.2127 10.1735 52.6691 9.3965C53.1377 8.60717 53.7729 7.99667 54.5746 7.565C55.3886 7.121 56.2951 6.899 57.2941 6.899C58.2684 6.899 59.1502 7.10867 59.9396 7.528C60.7289 7.94733 61.3456 8.55167 61.7896 9.341C62.2459 10.118 62.4741 11.0245 62.4741 12.0605ZM57.3126 9.082C56.6589 9.082 56.1101 9.267 55.6661 9.637C55.2221 10.007 54.9507 10.5127 54.8521 11.154H59.7546C59.6559 10.525 59.3846 10.0255 58.9406 9.6555C58.4966 9.27317 57.9539 9.082 57.3126 9.082ZM74.5335 3.273V17H71.777V15.853C71.0616 16.7163 70.0256 17.148 68.669 17.148C67.7316 17.148 66.8806 16.9383 66.116 16.519C65.3636 16.0997 64.7716 15.5015 64.34 14.7245C63.9083 13.9475 63.6925 13.0472 63.6925 12.0235C63.6925 10.9998 63.9083 10.0995 64.34 9.3225C64.7716 8.5455 65.3636 7.94733 66.116 7.528C66.8806 7.10867 67.7316 6.899 68.669 6.899C69.9393 6.899 70.9321 7.29983 71.6475 8.1015V3.273H74.5335ZM69.1685 14.78C69.8961 14.78 70.5005 14.5333 70.9815 14.04C71.4625 13.5343 71.703 12.8622 71.703 12.0235C71.703 11.1848 71.4625 10.5188 70.9815 10.0255C70.5005 9.51983 69.8961 9.267 69.1685 9.267C68.4285 9.267 67.818 9.51983 67.337 10.0255C66.856 10.5188 66.6155 11.1848 66.6155 12.0235C66.6155 12.8622 66.856 13.5343 67.337 14.04C67.818 14.5333 68.4285 14.78 69.1685 14.78ZM85.4001 14.78V17H76.5201V15.261L81.5891 9.267H76.6496V7.047H85.2336V8.786L80.1646 14.78H85.4001Z" fill="black"/>
<path d="M0.377 11.618V11.589L8.439 3.527L10.585 5.557L4.466 11.618L10.527 17.766L8.439 19.68L0.377 11.618ZM17.4276 11.618L11.3086 5.557L13.4546 3.527L21.5166 11.589V11.618L13.4546 19.68L11.3666 17.766L17.4276 11.618ZM22.2403 11.618V11.589L30.3023 3.527L32.4483 5.557L26.3293 11.618L32.3903 17.766L30.3023 19.68L22.2403 11.618Z" fill="#009789"/>
</g>
<defs>
<clipPath id="clip0">
<rect width="86" height="21" fill="white"/>
</clipPath>
</defs>
</svg>
