<svg width="86" height="21" viewBox="0 0 86 21" fill="none" xmlns="http://www.w3.org/2000/svg">
<path d="M42.11 16.2297C41.3221 16.2297 40.5519 16.1356 39.7992 15.9474C39.0466 15.7475 38.4469 15.5006 38 15.2066L38.9173 13.2309C39.3406 13.5014 39.8522 13.7248 40.4519 13.9012C41.0516 14.0659 41.6396 14.1482 42.2158 14.1482C43.3801 14.1482 43.9622 13.8601 43.9622 13.2838C43.9622 13.0134 43.8034 12.8193 43.4859 12.7017C43.1684 12.5841 42.6804 12.4842 42.0218 12.4019C41.2457 12.2843 40.6048 12.149 40.0991 11.9962C39.5934 11.8433 39.1524 11.5728 38.7761 11.1847C38.4116 10.7967 38.2293 10.244 38.2293 9.52663C38.2293 8.92688 38.3998 8.3977 38.7409 7.93907C39.0937 7.46868 39.5993 7.10413 40.2579 6.84542C40.9282 6.58671 41.7161 6.45735 42.6216 6.45735C43.2919 6.45735 43.9563 6.53379 44.6148 6.68666C45.2851 6.82778 45.8378 7.02769 46.2729 7.28641L45.3557 9.2444C44.5207 8.77401 43.6094 8.53881 42.6216 8.53881C42.0336 8.53881 41.5926 8.62113 41.2986 8.78577C41.0046 8.9504 40.8576 9.16208 40.8576 9.42079C40.8576 9.71478 41.0164 9.92058 41.3339 10.0382C41.6514 10.1558 42.1571 10.2675 42.8509 10.3733C43.627 10.5027 44.262 10.6438 44.7559 10.7967C45.2498 10.9378 45.6791 11.2024 46.0436 11.5905C46.4082 11.9785 46.5905 12.5195 46.5905 13.2133C46.5905 13.8013 46.4141 14.3246 46.0613 14.7832C45.7085 15.2418 45.1911 15.6005 44.509 15.8592C43.8387 16.1062 43.039 16.2297 42.11 16.2297Z" fill="black"/>
<path d="M48.2883 3H51.04V16.0885H48.2883V3Z" fill="black"/>
<path d="M62.8899 11.3788C62.8899 11.4141 62.8723 11.661 62.837 12.1196H55.6577C55.7871 12.7076 56.0928 13.1721 56.575 13.5132C57.0571 13.8542 57.6569 14.0247 58.3742 14.0247C58.8681 14.0247 59.3032 13.9542 59.6795 13.813C60.0676 13.6602 60.4263 13.425 60.7556 13.1075L62.2196 14.695C61.3259 15.7181 60.0206 16.2297 58.3037 16.2297C57.2335 16.2297 56.2869 16.0239 55.4637 15.6123C54.6405 15.1889 54.0055 14.6068 53.5586 13.866C53.1118 13.1251 52.8883 12.2843 52.8883 11.3435C52.8883 10.4145 53.1059 9.57955 53.541 8.83869C53.9878 8.08607 54.5935 7.50396 55.3579 7.09237C56.134 6.66902 56.9983 6.45735 57.9509 6.45735C58.8799 6.45735 59.7207 6.65726 60.4733 7.05709C61.2259 7.45692 61.8139 8.03315 62.2373 8.78577C62.6724 9.52663 62.8899 10.391 62.8899 11.3788ZM57.9685 8.53881C57.3452 8.53881 56.8219 8.71521 56.3986 9.068C55.9752 9.42079 55.7165 9.90294 55.6224 10.5144H60.2969C60.2028 9.9147 59.9441 9.43843 59.5208 9.08564C59.0974 8.72109 58.58 8.53881 57.9685 8.53881Z" fill="black"/>
<path d="M74.3884 3V16.0885H71.7601V14.9949C71.0781 15.8181 70.0903 16.2297 68.7967 16.2297C67.903 16.2297 67.0915 16.0297 66.3624 15.6299C65.6451 15.2301 65.0806 14.6597 64.669 13.9189C64.2575 13.178 64.0517 12.3196 64.0517 11.3435C64.0517 10.3674 64.2575 9.50899 64.669 8.76813C65.0806 8.02727 65.6451 7.45692 66.3624 7.05709C67.0915 6.65726 67.903 6.45735 68.7967 6.45735C70.0079 6.45735 70.9546 6.83954 71.6367 7.60392V3H74.3884ZM69.273 13.9718C69.9668 13.9718 70.543 13.7366 71.0016 13.2662C71.4603 12.7841 71.6896 12.1432 71.6896 11.3435C71.6896 10.5438 71.4603 9.90882 71.0016 9.43843C70.543 8.95628 69.9668 8.71521 69.273 8.71521C68.5674 8.71521 67.9853 8.95628 67.5266 9.43843C67.068 9.90882 66.8387 10.5438 66.8387 11.3435C66.8387 12.1432 67.068 12.7841 67.5266 13.2662C67.9853 13.7366 68.5674 13.9718 69.273 13.9718Z" fill="black"/>
<path d="M84.7496 13.9718V16.0885H76.2826V14.4304L81.1158 8.71521H76.4061V6.59846H84.5908V8.25658L79.7576 13.9718H84.7496Z" fill="black"/>
<path d="M0 11.1009V11.0732L7.68702 3.38622L9.73321 5.3218L3.89881 11.1009L9.67791 16.9629L7.68702 18.7879L0 11.1009Z" fill="#009789"/>
<path d="M16.2576 11.1009L10.4232 5.3218L12.4694 3.38622L20.1564 11.0732V11.1009L12.4694 18.7879L10.4785 16.9629L16.2576 11.1009Z" fill="#009789"/>
<path d="M20.8464 11.1009V11.0732L28.5334 3.38622L30.5796 5.3218L24.7452 11.1009L30.5243 16.9629L28.5334 18.7879L20.8464 11.1009Z" fill="#009789"/>
</svg>
