<svg height="512pt" viewBox="0 0 512 512" width="512pt" xmlns="http://www.w3.org/2000/svg"><path d="m256 512c-68.378906 0-132.667969-26.628906-181.019531-74.980469-48.351563-48.351562-74.980469-112.640625-74.980469-181.019531s26.628906-132.667969 74.980469-181.019531c48.351562-48.351563 112.640625-74.980469 181.019531-74.980469s132.667969 26.628906 181.019531 74.980469c48.351563 48.351562 74.980469 112.640625 74.980469 181.019531s-26.628906 132.667969-74.980469 181.019531c-48.351562 48.351563-112.640625 74.980469-181.019531 74.980469zm0 0" fill="#ffe733"/><path d="m437.019531 437.019531c48.351563-48.351562 74.980469-112.640625 74.980469-181.019531s-26.628906-132.667969-74.980469-181.019531c-48.351562-48.351563-112.640625-74.980469-181.019531-74.980469v512c68.378906 0 132.667969-26.628906 181.019531-74.980469zm0 0" fill="#ffc247"/><path d="m256 423.691406c-92.464844 0-167.691406-75.226562-167.691406-167.691406 0-8.4375 6.839844-15.277344 15.273437-15.277344h304.832031c8.4375 0 15.277344 6.839844 15.277344 15.277344 0 92.464844-75.226562 167.691406-167.691406 167.691406zm0 0" fill="#b0467a"/><path d="m408.414062 240.722656h-152.414062v182.96875c92.464844 0 167.691406-75.226562 167.691406-167.691406 0-8.4375-6.839844-15.277344-15.277344-15.277344zm0 0" fill="#6e294b"/><path d="m256 301.09375c-49.382812 0-95.585938 21.386719-130.367188 60.253906 30.769532 38 77.777344 62.34375 130.367188 62.34375s99.597656-24.34375 130.367188-62.34375c-34.78125-38.867187-80.984376-60.253906-130.367188-60.253906zm0 0" fill="#ff468c"/><path d="m386.367188 361.347656c-34.78125-38.867187-80.984376-60.253906-130.367188-60.253906v122.597656c52.589844 0 99.597656-24.34375 130.367188-62.34375zm0 0" fill="#d72878"/><path d="m200.3125 206.4375c-8.4375 0-15.277344-6.839844-15.277344-15.273438v-17.652343c0-7.863281-6.394531-14.257813-14.257812-14.257813-7.859375 0-14.253906 6.394532-14.253906 14.257813v17.652343c0 8.433594-6.839844 15.273438-15.277344 15.273438s-15.277344-6.839844-15.277344-15.273438v-17.652343c0-24.707031 20.101562-44.808594 44.808594-44.808594 24.710937 0 44.808594 20.101563 44.808594 44.808594v17.652343c0 8.433594-6.839844 15.273438-15.273438 15.273438zm0 0" fill="#27488f"/><path d="m370.753906 206.4375c-8.4375 0-15.277344-6.839844-15.277344-15.273438v-17.652343c0-7.863281-6.394531-14.257813-14.253906-14.257813-7.863281 0-14.257812 6.394532-14.257812 14.257813v17.652343c0 8.433594-6.839844 15.273438-15.277344 15.273438-8.433594 0-15.273438-6.839844-15.273438-15.273438v-17.652343c0-24.707031 20.097657-44.808594 44.808594-44.808594 24.707032 0 44.808594 20.101563 44.808594 44.808594v17.652343c0 8.433594-6.839844 15.273438-15.277344 15.273438zm0 0" fill="#1b3b6b"/></svg>