<svg xmlns="http://www.w3.org/2000/svg" viewBox="0 0 109.89385 115.12746">
  <title>with-love</title>
  <g id="Warstwa_2" data-name="Warstwa 2">
    <g id="Objects">
      <path d="M98.95548,5.05882c-11.3522-9.7319-27.62-4.0996-36.987,5.7287-5.2731,5.5327-7.393,13.0838-8.2824,21.01-5.7858-7.4345-12.0158-14.2737-21.81-15.6624-13.4845-1.912-29.5993,9.3771-31.573,22.9442-2.3073,15.8615,8.9635,29.7783,20.0733,39.6081,14.6739,12.9833,31.1735,24.1606,46.7994,35.9605,3.709,2.8009,15.7277-7.5449,14.5753-8.4151q-1.8957-1.43145-3.798-2.8551c3.5135-1.7759,7.2927-4.2942,7.8766-5.2064,9.5075-14.8529,18.7008-30.694,22.4106-48.1251C111.29348,35.70072,111.11958,15.48672,98.95548,5.05882Zm-68.4123,33.7574c-.0081-.0328-.0146-.0664-.0226-.0994l.0671.0676Z" style="fill: #ff3860"/>
    </g>
  </g>
</svg>
